solid OpenSCAD_Model
  facet normal -2.22045e-016 0 1
    outer loop
      vertex 7.9 1.2 1.75415e-015
      vertex 0 0 0
      vertex 9.1 0 2.02061e-015
    endloop
  endfacet
  facet normal -2.22045e-016 0 1
    outer loop
      vertex -2.2 68.8 -4.88498e-016
      vertex 0 68.8 0
      vertex -3.4 70 -7.54952e-016
    endloop
  endfacet
  facet normal -2.22045e-016 0 1
    outer loop
      vertex 9.1 16.2 2.02061e-015
      vertex 7.9 16.2 1.75415e-015
      vertex 9.1 0 2.02061e-015
    endloop
  endfacet
  facet normal -2.22045e-016 0 1
    outer loop
      vertex -3.4 62.6 -7.54952e-016
      vertex -2.2 62.6 -4.88498e-016
      vertex -3.4 70 -7.54952e-016
    endloop
  endfacet
  facet normal -2.22045e-016 0 1
    outer loop
      vertex 1.2 1.2 2.66454e-016
      vertex 0 0 0
      vertex 7.9 1.2 1.75415e-015
    endloop
  endfacet
  facet normal -2.22045e-016 0 1
    outer loop
      vertex 0 68.8 0
      vertex 0 0 0
      vertex 1.2 1.2 2.66454e-016
    endloop
  endfacet
  facet normal -2.22045e-016 0 1
    outer loop
      vertex 0 70 0
      vertex 0 68.8 0
      vertex 1.2 70 2.66454e-016
    endloop
  endfacet
  facet normal -2.22045e-016 0 1
    outer loop
      vertex -3.4 70 -7.54952e-016
      vertex 0 68.8 0
      vertex 0 70 0
    endloop
  endfacet
  facet normal -2.22045e-016 0 1
    outer loop
      vertex -2.2 62.6 -4.88498e-016
      vertex -2.2 68.8 -4.88498e-016
      vertex -3.4 70 -7.54952e-016
    endloop
  endfacet
  facet normal -2.22045e-016 0 1
    outer loop
      vertex 7.9 16.2 1.75415e-015
      vertex 7.9 1.2 1.75415e-015
      vertex 9.1 0 2.02061e-015
    endloop
  endfacet
  facet normal -2.22045e-016 0 1
    outer loop
      vertex 1.2 1.2 2.66454e-016
      vertex 1.2 70 2.66454e-016
      vertex 0 68.8 0
    endloop
  endfacet
  facet normal 0 -1 0
    outer loop
      vertex 9.1 0 2.02061e-015
      vertex 0 0 0
      vertex 2.09239e-015 0 -11.8
    endloop
  endfacet
  facet normal 0 -1 0
    outer loop
      vertex 9.1 0 -11.8
      vertex 9.1 0 2.02061e-015
      vertex 2.09239e-015 0 -11.8
    endloop
  endfacet
  facet normal -1 0 -1.77321e-016
    outer loop
      vertex 0 0 0
      vertex 0 68.8 0
      vertex 2.09239e-015 0 -11.8
    endloop
  endfacet
  facet normal -1 0 -1.77321e-016
    outer loop
      vertex 2.09239e-015 0 -11.8
      vertex 0 68.8 0
      vertex 2.09239e-015 68.8 -11.8
    endloop
  endfacet
  facet normal 0 -1 0
    outer loop
      vertex 0 68.8 0
      vertex -2.2 68.8 -4.88498e-016
      vertex -2.2 68.8 -11.8
    endloop
  endfacet
  facet normal 0 -1 0
    outer loop
      vertex 2.09239e-015 68.8 -11.8
      vertex 0 68.8 0
      vertex -2.2 68.8 -11.8
    endloop
  endfacet
  facet normal 1 0 1.77321e-016
    outer loop
      vertex -2.2 68.8 -4.88498e-016
      vertex -2.2 62.6 -4.88498e-016
      vertex -2.2 62.6 -11.8
    endloop
  endfacet
  facet normal 1 0 1.77321e-016
    outer loop
      vertex -2.2 68.8 -11.8
      vertex -2.2 68.8 -4.88498e-016
      vertex -2.2 62.6 -11.8
    endloop
  endfacet
  facet normal 0 -1 0
    outer loop
      vertex -2.2 62.6 -4.88498e-016
      vertex -3.4 62.6 -7.54952e-016
      vertex -3.4 62.6 -11.8
    endloop
  endfacet
  facet normal 0 -1 0
    outer loop
      vertex -2.2 62.6 -11.8
      vertex -2.2 62.6 -4.88498e-016
      vertex -3.4 62.6 -11.8
    endloop
  endfacet
  facet normal -1 0 -1.77321e-016
    outer loop
      vertex -3.4 62.6 -7.54952e-016
      vertex -3.4 70 -7.54952e-016
      vertex -3.4 62.6 -11.8
    endloop
  endfacet
  facet normal -1 0 -1.77321e-016
    outer loop
      vertex -3.4 62.6 -11.8
      vertex -3.4 70 -7.54952e-016
      vertex -3.4 70 -11.8
    endloop
  endfacet
  facet normal 0 1 0
    outer loop
      vertex -3.4 70 -7.54952e-016
      vertex 0 70 0
      vertex -3.4 70 -11.8
    endloop
  endfacet
  facet normal 0 1 0
    outer loop
      vertex -3.4 70 -11.8
      vertex 0 70 0
      vertex 2.09239e-015 70 -11.8
    endloop
  endfacet
  facet normal 0 1 0
    outer loop
      vertex 0 70 0
      vertex 1.2 70 2.66454e-016
      vertex 2.09239e-015 70 -11.8
    endloop
  endfacet
  facet normal 0 1 0
    outer loop
      vertex 2.09239e-015 70 -11.8
      vertex 1.2 70 2.66454e-016
      vertex 1.2 70 -11.8
    endloop
  endfacet
  facet normal 1 0 1.77321e-016
    outer loop
      vertex 1.2 70 2.66454e-016
      vertex 1.2 1.2 2.66454e-016
      vertex 1.2 1.2 -11.8
    endloop
  endfacet
  facet normal 1 0 1.77321e-016
    outer loop
      vertex 1.2 70 -11.8
      vertex 1.2 70 2.66454e-016
      vertex 1.2 1.2 -11.8
    endloop
  endfacet
  facet normal 0 1 0
    outer loop
      vertex 1.2 1.2 2.66454e-016
      vertex 7.9 1.2 1.75415e-015
      vertex 1.2 1.2 -11.8
    endloop
  endfacet
  facet normal 0 1 0
    outer loop
      vertex 1.2 1.2 -11.8
      vertex 7.9 1.2 1.75415e-015
      vertex 7.9 1.2 -11.8
    endloop
  endfacet
  facet normal -1 0 -1.77321e-016
    outer loop
      vertex 7.9 1.2 1.75415e-015
      vertex 7.9 16.2 1.75415e-015
      vertex 7.9 1.2 -11.8
    endloop
  endfacet
  facet normal -1 0 -1.77321e-016
    outer loop
      vertex 7.9 1.2 -11.8
      vertex 7.9 16.2 1.75415e-015
      vertex 7.9 16.2 -11.8
    endloop
  endfacet
  facet normal 0 1 0
    outer loop
      vertex 7.9 16.2 1.75415e-015
      vertex 9.1 16.2 2.02061e-015
      vertex 7.9 16.2 -11.8
    endloop
  endfacet
  facet normal 0 1 0
    outer loop
      vertex 7.9 16.2 -11.8
      vertex 9.1 16.2 2.02061e-015
      vertex 9.1 16.2 -11.8
    endloop
  endfacet
  facet normal 1 0 1.77321e-016
    outer loop
      vertex 9.1 16.2 2.02061e-015
      vertex 9.1 0 2.02061e-015
      vertex 9.1 0 -11.8
    endloop
  endfacet
  facet normal 1 0 1.77321e-016
    outer loop
      vertex 9.1 16.2 -11.8
      vertex 9.1 16.2 2.02061e-015
      vertex 9.1 0 -11.8
    endloop
  endfacet
  facet normal 2.22045e-016 0 -1
    outer loop
      vertex 2.09239e-015 70 -11.8
      vertex 2.09239e-015 68.8 -11.8
      vertex -3.4 70 -11.8
    endloop
  endfacet
  facet normal 2.22045e-016 0 -1
    outer loop
      vertex -3.4 70 -11.8
      vertex -2.2 68.8 -11.8
      vertex -3.4 62.6 -11.8
    endloop
  endfacet
  facet normal 2.22045e-016 0 -1
    outer loop
      vertex -2.2 68.8 -11.8
      vertex -2.2 62.6 -11.8
      vertex -3.4 62.6 -11.8
    endloop
  endfacet
  facet normal 2.22045e-016 0 -1
    outer loop
      vertex 2.09239e-015 68.8 -11.8
      vertex -2.2 68.8 -11.8
      vertex -3.4 70 -11.8
    endloop
  endfacet
  facet normal 2.22045e-016 0 -1
    outer loop
      vertex 2.09239e-015 0 -11.8
      vertex 2.09239e-015 68.8 -11.8
      vertex 1.2 1.2 -11.8
    endloop
  endfacet
  facet normal 2.22045e-016 0 -1
    outer loop
      vertex 2.09239e-015 0 -11.8
      vertex 1.2 1.2 -11.8
      vertex 9.1 0 -11.8
    endloop
  endfacet
  facet normal 2.22045e-016 0 -1
    outer loop
      vertex 7.9 16.2 -11.8
      vertex 9.1 0 -11.8
      vertex 7.9 1.2 -11.8
    endloop
  endfacet
  facet normal 2.22045e-016 0 -1
    outer loop
      vertex 1.2 1.2 -11.8
      vertex 7.9 1.2 -11.8
      vertex 9.1 0 -11.8
    endloop
  endfacet
  facet normal 2.22045e-016 0 -1
    outer loop
      vertex 9.1 0 -11.8
      vertex 7.9 16.2 -11.8
      vertex 9.1 16.2 -11.8
    endloop
  endfacet
  facet normal 2.22045e-016 0 -1
    outer loop
      vertex 1.2 1.2 -11.8
      vertex 2.09239e-015 68.8 -11.8
      vertex 2.09239e-015 70 -11.8
    endloop
  endfacet
  facet normal 2.22045e-016 0 -1
    outer loop
      vertex 1.2 1.2 -11.8
      vertex 2.09239e-015 70 -11.8
      vertex 1.2 70 -11.8
    endloop
  endfacet
endsolid OpenSCAD_Model
